<svg width="32" height="24" viewBox="0 0 32 24" fill="none" xmlns="http://www.w3.org/2000/svg">
<path d="M3.99998 8.00002C5.47274 8.00002 6.66665 6.80611 6.66665 5.33335C6.66665 3.86059 5.47274 2.66669 3.99998 2.66669C2.52722 2.66669 1.33331 3.86059 1.33331 5.33335C1.33331 6.80611 2.52722 8.00002 3.99998 8.00002Z" stroke="#B4CD93" stroke-width="1.5" stroke-miterlimit="10" stroke-linecap="round" stroke-linejoin="round"/>
<path d="M28 8.00002C29.4727 8.00002 30.6666 6.80611 30.6666 5.33335C30.6666 3.86059 29.4727 2.66669 28 2.66669C26.5272 2.66669 25.3333 3.86059 25.3333 5.33335C25.3333 6.80611 26.5272 8.00002 28 8.00002Z" stroke="#B4CD93" stroke-width="1.5" stroke-miterlimit="10" stroke-linecap="round" stroke-linejoin="round"/>
<path d="M25.3333 5.33334H20" stroke="#B4CD93" stroke-width="1.5" stroke-miterlimit="10" stroke-linecap="round" stroke-linejoin="round"/>
<path d="M12 5.33334H6.66663" stroke="#B4CD93" stroke-width="1.5" stroke-miterlimit="10" stroke-linecap="round" stroke-linejoin="round"/>
<path d="M9.99998 18V20.6667C9.99998 21.48 9.50665 22.1866 8.81331 22.48C8.55998 22.6 8.29331 22.6667 7.99998 22.6667H5.33331C4.22665 22.6667 3.33331 21.7733 3.33331 20.6667V18C3.33331 16.8933 4.22665 16 5.33331 16H7.99998C9.10665 16 9.99998 16.8933 9.99998 18Z" stroke="#B4CD93" stroke-width="1.5" stroke-miterlimit="10" stroke-linecap="round" stroke-linejoin="round"/>
<path d="M28.6667 18V20.6667C28.6667 21.7733 27.7733 22.6667 26.6667 22.6667H24C23.7067 22.6667 23.44 22.6 23.1867 22.48C22.4933 22.1866 22 21.48 22 20.6667V18C22 16.8933 22.8933 16 24 16H26.6667C27.7733 16 28.6667 16.8933 28.6667 18Z" stroke="#B4CD93" stroke-width="1.5" stroke-miterlimit="10" stroke-linecap="round" stroke-linejoin="round"/>
<path d="M20 3.33334V7.33334C20 8.42668 19.0933 9.33334 18 9.33334H14C12.9067 9.33334 12 8.42668 12 7.33334V3.33334C12 2.24001 12.9067 1.33334 14 1.33334H18C19.0933 1.33334 20 2.24001 20 3.33334Z" stroke="#B4CD93" stroke-width="1.5" stroke-miterlimit="10" stroke-linecap="round" stroke-linejoin="round"/>
<path d="M20 6.30664C23.16 7.90664 25.3333 11.3467 25.3333 15.3333C25.3333 15.56 25.32 15.7733 25.2933 16" stroke="#B4CD93" stroke-width="1.5" stroke-miterlimit="10" stroke-linecap="round" stroke-linejoin="round"/>
<path d="M6.70663 16C6.67996 15.7733 6.66663 15.56 6.66663 15.3333C6.66663 11.3467 8.83996 7.90664 12 6.30664" stroke="#B4CD93" stroke-width="1.5" stroke-miterlimit="10" stroke-linecap="round" stroke-linejoin="round"/>
</svg>
